Patient4_TMGait_0pt2_01_right_24_EMG.mot
version=1
nRows=19
nColumns=33
inDegrees=no
endheader
time	1LAddLong	2LGlutMax	3LGlutMed	4LIliopsoas	5LSemiMemb	6LBicFemLong	7LRecFem	8LVastMed	9LVastLat	10LGasMed	11LTibAnt	12lTibPost	13LPeroneusLong	14LSol	15LExtDigLong	16LFlexDigLong	17RAddLong	18RGlutMax	19RGlutMed	20RIliopsoas	21RSemiMemb	22RBicFemLong	23RRecFem	24RVastMed	25RVastLat	26RGasMed	27RTibAnt	28RTibPost	29RPeroneusLong	30RSol	31RExtDigLong	32RFlexDigLong
56.16	-0.044861	0.16388	0.001526	0.006866	0.006256	0.030518	-0.14084	-0.005341	0.15411	0.066986	-0.10605	0.013275	0.009766	-0.090942	-0.067596	0.006256	-0.012207	0.043335	-0.058136	0.029449	0.079956	-0.007935	-0.033264	-0.019684	0.024414	-0.005798	-0.050049	0.005646	0.045013	-0.082092	-0.002899	-0.015564
56.161	-0.041351	0.16541	-0.025177	0.019684	-0.001831	0.03891	-0.26779	-0.02594	0.051422	0.025635	-0.021362	0.013275	-0.025177	-0.079346	0.06012	0.012207	-0.026855	0.056763	0.21316	0.1474	0.071106	0.001984	-0.050201	-0.065002	0.023041	-0.013428	0.18143	0.007019	-0.085754	-0.10513	0.000458	-0.018768
56.162	-0.050201	0.1471	-0.073853	0.026703	-0.014191	0.029602	-0.17853	-0.029602	-0.13641	0.013275	-0.088196	0.022125	0.050201	-0.056	0.15076	0.003967	-0.028381	-0.003052	0.11627	0.14725	0.071716	-0.001984	-0.04364	-0.046997	0.028229	-0.013428	0.077515	0.002594	-0.10239	-0.062256	0.005341	-0.027618
56.163	-0.037231	0.21301	-0.005188	0.020294	-0.030212	0.017853	-0.063019	-0.003662	-0.32074	0.016479	-0.14664	0.015411	0.029449	-0.025482	0.17929	0.00351	-0.012512	0.045624	-0.008392	0.10391	0.068054	0.000305	-0.067596	-0.057526	0.032196	-0.014954	0.055237	-0.001068	-0.070038	0.016327	-0.000305	-0.018616
56.164	-0.026245	0.18707	0.057678	-0.006256	0.024261	-0.043182	0.031281	-0.006714	-0.32028	0.034332	-0.12375	0.019836	-0.003967	-0.034637	0.15457	0.0177	0.013123	0.008392	0.087433	0.00412	0.075226	-0.023804	-0.05249	-0.029449	0.025787	-0.014648	-0.091248	0	-0.041962	0.10346	0.003052	-0.015259
56.165	-0.000916	0.18021	0.1355	0.003815	-0.010223	-0.027771	0.058136	-0.021973	-0.28427	0.006104	0.055695	0.012665	-0.03418	-0.024719	0.092163	0.021667	0.037537	-0.013123	0.22415	-0.021362	0.074768	-0.00824	-0.074921	-0.056458	0.019836	-0.007935	0.007324	0.001221	-0.030212	0.077057	0.002136	-0.014343
56.166	0.005341	0.16022	-0.078583	-0.003357	-0.032196	-0.002136	0.13138	-0.00946	-0.2359	0.007324	0.090027	0.022125	0.17303	-0.072937	0.04776	0.001526	0.075989	-0.04837	-0.17792	0.028992	0.084381	0.007935	-0.054626	-0.032959	0.032196	-0.002594	0.11063	0.007172	0.027008	0.069733	0.001221	-0.011444
56.167	0.018311	0.1973	0.080566	0.007172	-0.042114	-0.031433	0.13916	0.013885	-0.18799	0.014496	-0.000153	0.010071	-0.032959	-0.006256	0.082092	0.010529	0.12726	-0.087128	-0.13107	0.021973	0.089417	-0.012054	-0.024719	-0.087891	0.013733	-0.007935	0.2449	0.000458	0.009918	0.067749	-0.000305	-0.016479
56.168	-0.001068	0.23132	0.21591	0.021667	0.050964	-0.056458	0.091858	0.017548	-0.11047	0.020752	-0.000153	0.012207	-0.14877	-0.001221	0.092316	0.001831	0.095367	-0.047302	0.25726	-0.086975	0.070648	-0.015869	-0.015106	-0.12619	0.020294	-0.008087	0.23575	-0.000763	0.030518	-0.049896	0.002136	-0.014343
56.169	0.002899	0.23315	0.13626	0.027161	0.063934	-0.054016	0.075226	0.014954	0.077362	0.029144	-0.019379	0.012665	0.11627	0.044098	0.067749	0.013275	0.049133	-0.042419	0.10819	-0.028992	0.06958	-0.025787	0.011749	-0.13367	0.005035	-0.002899	0.20203	0.008392	0.005035	-0.10132	0	-0.007019
56.17	-0.001984	0.20905	0.096741	0.011139	0.039063	-0.090942	0.03952	0.005188	0.1738	0.032959	0.03418	0.016632	0.075226	0.058441	0.059357	0.011139	0.005035	-0.010834	0.02594	-0.037689	0.046997	-0.036926	-0.007629	-0.13046	-0.00412	-0.005646	0.14557	-0.001221	-0.000763	-0.072021	-0.000153	-0.008545
56.171	0.012207	0.16266	0.028534	0.014648	0.033875	-0.085144	-0.030823	0.021057	0.17685	0.014343	0.071411	0.00946	0.15091	0.061035	0.15564	0.013123	-0.024719	-0.022583	0.027161	-0.050812	0.046692	-0.011444	-0.014801	-0.10391	-0.00061	-0.007782	0.22156	-0.003204	-0.043488	-0.08728	0.000153	-0.007172
56.172	0.002441	0.15778	0.13916	0.005798	0.015564	-0.038147	-0.086212	0.035858	0.084686	0.015717	0.032501	0.011902	0.10346	-0.01709	0.062866	0.011292	-0.025787	-0.034485	-0.011597	-0.063019	0.04715	-0.005493	0.023499	-0.087128	-0.007172	-0.009918	0.16266	-0.00412	-0.065918	-0.068359	-0.001678	-0.007935
56.173	0.019379	0.11719	0.037994	0.008392	0.018005	0.005951	-0.090179	0.042877	0.030518	0.023956	-0.026245	0.013733	-0.027161	0	-0.011444	0.011597	-0.015869	-0.029907	-0.35523	-0.033722	0.051575	0.006409	0.023651	-0.097656	0.005188	-0.004272	-0.050507	-0.009613	-0.058441	-0.050964	0.003967	-0.012817
56.174	0.028687	0.03418	-0.11627	0.01358	0.028992	-0.028076	-0.15808	0.012817	0.2298	0.036469	-0.055542	0.019531	-0.20508	0.033264	0.018311	0.030212	0.016632	0.005951	-0.083466	-0.016022	0.088043	0.040741	0.0177	-0.082703	0.021057	-0.009155	-0.23666	-0.008392	0.018921	-0.083618	0.000916	0.003052
56.175	0.023499	0.020447	-0.1152	0.012512	0.038147	-0.04303	-0.11963	0.011292	0.19638	0.029144	-0.05249	0.014343	-0.052643	0.099335	0.057526	0.009918	0.046234	0.003662	0.61813	0.024109	0.095215	0.036469	-0.013733	-0.088196	0.028076	-0.006714	-0.14511	-0.010681	0.081635	-0.13763	0.002441	-0.011902
56.176	0.028687	-0.008392	-0.055237	-0.001984	0.02121	-0.068817	-0.14603	0.002747	0.12497	0.013885	-0.071564	0.013885	0.14694	0.096588	-0.00412	0.011292	0.035248	0.007019	0.11215	0.10544	0.091095	0.021667	-0.032959	-0.08667	0.042572	-0.007782	0.067291	-0.009918	0.055695	-0.14511	0.005035	-0.00946
56.177	0.027771	0.013428	-0.061798	0.005035	0.008392	-0.037231	-0.13107	-0.045319	-0.006409	-0.000763	0.031281	0.016479	0.040894	0.041656	-0.004272	0.010834	0.002441	0.049286	-0.15411	0.19516	0.089874	0.013733	-0.03952	-0.061493	0.028076	-0.011292	0.72861	-0.01297	-0.078888	-0.078125	0.001678	-0.016174
56.178	0.028687	0.011749	-0.06424	-0.003052	0.016174	-0.002136	-0.12802	-0.012054	-0.2002	-0.011902	0.1059	0.012817	-0.080566	-0.070801	0.040741	0.010223	-0.031586	-0.026855	-0.19989	0.16419	0.10498	0.013275	-0.017395	0.012054	0.040283	-0.00824	1.0367	-0.01358	-0.15945	-0.094604	0.002747	-0.010071
